<?xml version="1.0" encoding="utf-8"?>
<!-- Generator: Adobe Illustrator 16.0.4, SVG Export Plug-In . SVG Version: 6.00 Build 0)  -->
<!DOCTYPE svg PUBLIC "-//W3C//DTD SVG 1.1//EN" "http://www.w3.org/Graphics/SVG/1.1/DTD/svg11.dtd">
<svg version="1.1" id="Livello_1" xmlns="http://www.w3.org/2000/svg" xmlns:xlink="http://www.w3.org/1999/xlink" x="0px" y="0px"
	 width="940px" height="239px" viewBox="395.451 194.793 940 239" enable-background="new 395.451 194.793 940 239"
	 xml:space="preserve">
<g>
	<path fill="#312936" d="M456.377,431.576c-2.21,1.487-4.754,2.217-7.635,2.217c-2.887,0-5.407-0.646-7.54-1.932
		c-2.143-1.287-3.805-3.123-4.961-5.503c-1.166-2.375-1.748-5.18-1.748-8.417c0-3.192,0.582-6.001,1.748-8.395
		c1.157-2.384,2.819-4.229,4.961-5.526c2.133-1.286,4.619-1.931,7.438-1.931c2.956,0,5.423,0.608,7.428,1.819
		c2.004,1.206,3.495,2.994,4.49,5.362L456.882,411c-0.678-1.803-1.68-3.161-2.981-4.061c-1.296-0.903-2.955-1.356-4.979-1.356
		c-2.106,0-3.95,0.497-5.535,1.479c-1.583,0.975-2.809,2.399-3.676,4.261c-0.873,1.862-1.303,4.079-1.303,6.617
		c0,3.853,0.919,6.884,2.771,9.072c1.841,2.189,4.36,3.285,7.563,3.285c2.074,0,3.875-0.53,5.397-1.585
		c1.52-1.058,2.595-2.609,3.256-4.66l3.729,1.397C460.157,428.059,458.571,430.099,456.377,431.576z"/>
	<path fill="#312936" d="M494.959,420.549h-7.352v12.781h-3.727v-30.778h11.636c3.136,0,5.654,0.809,7.549,2.43
		c1.894,1.612,2.836,3.811,2.836,6.576c0,2.171-0.61,4.007-1.815,5.497c-1.209,1.495-2.871,2.519-4.979,3.072l8.653,13.201h-4.421
		L494.959,420.549z M487.607,417.057h7.866c4.343,0,6.521-1.837,6.521-5.497c0-3.675-2.178-5.504-6.521-5.504h-7.866V417.057z"/>
	<path fill="#312936" d="M552.684,429.835v3.495h-22.255v-30.778h21.56v3.504h-17.829v9.927h13.872v3.494h-13.872v10.356
		L552.684,429.835L552.684,429.835z"/>
	<path fill="#312936" d="M592.994,424.799h-13.922l-3.256,8.531h-3.907l11.962-30.778h4.419l11.92,30.778h-3.96L592.994,424.799z
		 M591.641,421.295l-4.148-10.906l-1.438-4.292h-0.096l-1.346,4.153l-4.188,11.043h11.215V421.295z"/>
	<path fill="#312936" d="M639.441,406.056H628.74v27.274h-3.719v-27.274h-10.709v-3.504h25.129V406.056L639.441,406.056z"/>
	<path fill="#312936" d="M683.807,429.835v3.495h-22.249v-30.778h21.548v3.504h-17.832v9.927h13.879v3.494h-13.879v10.356
		L683.807,429.835L683.807,429.835z"/>
	<path fill="#312936" d="M758.237,404.021c2.144,1.298,3.796,3.132,4.962,5.511c1.165,2.376,1.749,5.184,1.749,8.41
		c0,3.237-0.583,6.042-1.749,8.417c-1.166,2.38-2.818,4.216-4.962,5.503c-2.141,1.286-4.651,1.932-7.54,1.932
		c-2.887,0-5.398-0.646-7.539-1.932c-2.141-1.287-3.795-3.123-4.96-5.503c-1.165-2.375-1.739-5.18-1.739-8.417
		c0-3.227,0.574-6.032,1.739-8.41c1.165-2.379,2.819-4.213,4.96-5.511c2.141-1.286,4.652-1.931,7.539-1.931
		C753.586,402.09,756.097,402.734,758.237,404.021z M743.133,408.871c-1.852,2.197-2.77,5.218-2.77,9.07s0.918,6.884,2.77,9.07
		c1.852,2.191,4.367,3.287,7.562,3.287c3.197,0,5.716-1.098,7.566-3.287c1.842-2.187,2.77-5.218,2.77-9.07s-0.928-6.873-2.77-9.07
		c-1.853-2.189-4.37-3.286-7.566-3.286C747.502,405.585,744.984,406.682,743.133,408.871z"/>
	<path fill="#312936" d="M807.068,405.095c1.895,1.696,2.834,3.974,2.834,6.831c0,2.865-0.939,5.139-2.834,6.831
		c-1.896,1.7-4.387,2.538-7.498,2.538h-7.119v12.035h-3.729v-30.778h10.848C802.681,402.552,805.174,403.402,807.068,405.095z
		 M804.3,416.336c1.133-0.979,1.695-2.444,1.695-4.41c0-1.958-0.562-3.427-1.695-4.403c-1.131-0.979-2.896-1.467-5.288-1.467h-6.562
		v11.749h6.562C801.404,417.805,803.169,417.315,804.3,416.336z"/>
	<path fill="#312936" d="M851.057,405.095c1.895,1.696,2.836,3.974,2.836,6.831c0,2.865-0.941,5.139-2.836,6.831
		c-1.894,1.7-4.396,2.538-7.498,2.538h-7.117v12.035h-3.73v-30.778h10.849C846.66,402.552,849.163,403.402,851.057,405.095z
		 M848.279,416.336c1.142-0.979,1.706-2.444,1.706-4.41c0-1.958-0.564-3.427-1.706-4.403c-1.131-0.979-2.889-1.467-5.277-1.467
		h-6.562v11.749h6.562C845.393,417.805,847.148,417.315,848.279,416.336z"/>
	<path fill="#312936" d="M896.622,404.021c2.141,1.298,3.794,3.132,4.959,5.511c1.165,2.376,1.749,5.184,1.749,8.41
		c0,3.237-0.584,6.042-1.749,8.417c-1.165,2.38-2.818,4.216-4.959,5.503c-2.137,1.286-4.653,1.932-7.54,1.932
		c-2.88,0-5.399-0.646-7.54-1.932c-2.143-1.287-3.796-3.123-4.954-5.503c-1.165-2.375-1.746-5.18-1.746-8.417
		c0-3.227,0.581-6.032,1.746-8.41c1.158-2.379,2.812-4.213,4.954-5.511c2.141-1.286,4.66-1.931,7.54-1.931
		C891.969,402.09,894.485,402.734,896.622,404.021z M881.516,408.871c-1.842,2.197-2.768,5.218-2.768,9.07s0.926,6.884,2.768,9.07
		c1.853,2.191,4.369,3.287,7.566,3.287c3.193,0,5.725-1.098,7.562-3.287c1.847-2.187,2.771-5.218,2.771-9.07
		s-0.925-6.873-2.771-9.07c-1.838-2.189-4.367-3.286-7.562-3.286C885.885,405.585,883.366,406.682,881.516,408.871z"/>
	<path fill="#312936" d="M938.192,420.549h-7.357v12.781h-3.719v-30.778h11.636c3.136,0,5.646,0.809,7.539,2.43
		c1.895,1.612,2.846,3.811,2.846,6.576c0,2.171-0.609,4.007-1.814,5.497c-1.219,1.495-2.87,2.519-4.984,3.072l8.66,13.201h-4.424
		L938.192,420.549z M930.833,417.057h7.871c4.339,0,6.516-1.837,6.516-5.497c0-3.675-2.177-5.504-6.516-5.504h-7.871V417.057z"/>
	<path fill="#312936" d="M994.33,406.056h-10.709v27.274h-3.722v-27.274h-10.71v-3.504h25.142L994.33,406.056L994.33,406.056z"/>
	<path fill="#312936" d="M1040.23,421.854c0,3.959-1.038,6.926-3.103,8.935c-2.065,2.007-5.049,3.005-8.961,3.005
		c-3.91,0-6.893-1.006-8.957-3.028c-2.063-2.02-3.102-4.986-3.102-8.911v-19.302h3.73v18.376c0,3.237,0.675,5.605,2.021,7.117
		c1.354,1.496,3.453,2.254,6.309,2.254c2.858,0,4.959-0.758,6.312-2.254c1.347-1.513,2.024-3.88,2.024-7.117v-18.376h3.728
		L1040.23,421.854L1040.23,421.854z"/>
	<path fill="#312936" d="M1089.659,433.33h-4.601l-12.856-20.606l-3.264-6.058h-0.042l0.188,4.935v21.729h-3.538v-30.778h4.608
		l12.801,20.519l3.309,6.156h0.041l-0.188-4.946v-21.729h3.538L1089.659,433.33L1089.659,433.33z"/>
	<path fill="#312936" d="M1119.03,433.33h-3.718v-30.778h3.718V433.33z"/>
	<path fill="#312936" d="M1166.281,406.056h-10.709v27.274h-3.726v-27.274h-10.702v-3.504h25.137V406.056z"/>
	<path fill="#312936" d="M1192.116,433.33h-3.729v-30.778h3.729V433.33z"/>
	<path fill="#312936" d="M1240.009,429.835v3.495h-22.251v-30.778h21.56v3.504h-17.831v9.927h13.871v3.494h-13.871v10.356
		L1240.009,429.835L1240.009,429.835z"/>
	<path fill="#312936" d="M1284.786,408.62l-3.212,2.61c-0.927-2.053-2.04-3.51-3.324-4.361c-1.284-0.856-3.05-1.286-5.286-1.286
		c-2.354,0-4.209,0.497-5.562,1.479c-1.347,0.975-2.021,2.231-2.021,3.748c0,0.993,0.256,1.816,0.786,2.472
		c0.532,0.65,1.408,1.218,2.634,1.7c1.226,0.486,2.928,0.917,5.098,1.284c4.062,0.68,6.946,1.7,8.636,3.073
		c1.688,1.361,2.538,3.261,2.538,5.688c0,1.743-0.489,3.27-1.467,4.594c-0.979,1.32-2.364,2.351-4.162,3.081
		c-1.812,0.729-3.884,1.089-6.239,1.089c-3.11,0-5.749-0.604-7.94-1.812c-2.187-1.219-3.85-2.833-4.995-4.858l3.202-2.608
		c0.844,1.834,2.073,3.263,3.702,4.265c1.63,1.014,3.668,1.52,6.126,1.52c2.417,0,4.335-0.444,5.769-1.329
		c1.431-0.884,2.142-2.136,2.142-3.748c0-1.374-0.618-2.464-1.858-3.273c-1.241-0.808-3.452-1.489-6.615-2.049
		c-4.093-0.714-6.99-1.733-8.702-3.073c-1.706-1.338-2.556-3.198-2.556-5.594c0-1.649,0.464-3.176,1.396-4.566
		c0.925-1.407,2.263-2.517,4.002-3.34c1.739-0.822,3.751-1.234,6.05-1.234C1278.413,402.09,1282.37,404.271,1284.786,408.62z"/>
</g>
<path id="XMLID_279_" fill="#2C84C4" d="M1096.385,245.385c11.755-11.959,28.282-19.499,46.283-19.499
	c18.19,0,34.527,7.54,46.474,19.499c11.565,11.955,19.099,28.334,19.099,46.55c0,18.208-7.531,34.584-19.099,46.539
	c-11.944,12.144-28.281,19.507-46.474,19.507c-18.001,0-34.528-7.363-46.283-19.507c-11.566-11.957-19.106-28.332-19.106-46.539
	C1077.278,273.719,1084.818,257.34,1096.385,245.385z M1175.913,258.633c-8.628-8.648-20.571-13.981-33.243-13.981
	c-12.673,0-24.431,5.333-32.876,13.981c-8.448,8.455-13.776,20.238-13.776,33.302c0,13.062,5.328,24.83,13.776,33.293
	c8.445,8.646,20.203,13.981,32.876,13.981s24.615-5.335,33.243-13.981c8.271-8.463,13.591-20.052,13.591-33.293
	C1189.504,278.683,1184.182,267.088,1175.913,258.633z"/>
<path id="XMLID_275_" fill="#2C84C4" d="M1292.43,225.98c16.599,0,27.177,9.445,32.078,21.727
	c5.277,13.04,3.582,28.151-9.621,37.609c15.088,6.42,20.564,20.41,20.564,32.88c0,19.846-13.025,39.878-38.3,39.878h-59.625V225.98
	H1292.43z M1256.399,278.516h35.65c20.761,0,21.13-34.395,0.378-34.395h-36.028V278.516z M1256.399,339.555h40.751
	c12.825,0,19.242-10.771,19.242-21.165c0-10.397-6.417-20.979-19.242-20.979h-40.751V339.555z"/>
<polygon fill="#2C84C4" points="1100.658,194.793 1032.545,194.793 1032.545,220.967 "/>
<path fill="#312936" d="M600.5,231.081h-49.516v126.993H545.4V231.081H495.68v-4.998h104.821L600.5,231.081L600.5,231.081z"/>
<path fill="#312936" d="M715.105,353.069v5.005h-91.438V226.083h88.242v4.998h-82.665v57.194h65.897v5.002h-65.897v59.792H715.105z"
	/>
<path fill="#312936" d="M841.888,358.074h-7.385l-80.464-114.793l-6.793-11.4h-0.196l0.401,13.4v112.792h-5.396v-131.99h7.195
	l80.658,114.792l6.787,11.199l-0.197-13.198V226.083h5.39V358.074L841.888,358.074z"/>
<g>
	<polygon fill="#312936" points="455.546,226.083 449.164,226.083 395.451,358.074 401.243,358.074 419.613,313.273 421.61,308.074 
		448.358,242.484 452.36,231.881 456.35,242.684 482.9,308.074 485.096,313.273 503.467,358.074 509.259,358.074 	"/>
</g>
<g>
	<polygon fill="#312936" points="925.145,226.083 918.752,226.083 865.047,358.074 870.84,358.074 889.201,313.273 891.197,308.074 
		917.955,242.484 921.947,231.881 925.939,242.684 952.492,308.074 954.686,313.273 973.065,358.074 978.856,358.074 	"/>
</g>
<path fill="#2C84C4" d="M1032.527,233.264l0.093,67.544c0,24.876-21.323,36.864-49.06,38.068l7.574,18.606
	c34.598-3.366,60.542-21.431,60.542-56.676l-0.095-74.891L1032.527,233.264z"/>
</svg>
